<svg width="32" height="32" viewBox="0 0 32 32" fill="none" xmlns="http://www.w3.org/2000/svg">
<g clip-path="url(#clip0_89_25)">
<path d="M0.538209 8.79874C0.250895 8.88364 0.0420461 9.16144 0.0461034 9.43985L0.0461246 9.44131L0.046114 31.2352C0.0464957 31.4325 0.164076 31.6216 0.344542 31.7477C0.524736 31.8735 0.753343 31.9262 0.957487 31.8659L0.957566 31.8659L9.53958 29.3409L9.5678 29.3326L9.59603 29.3409L18.178 31.8657L18.1782 31.8657C18.3135 31.9057 18.4621 31.9057 18.5974 31.8657L18.5975 31.8657L27.4171 29.2695L0.538209 8.79874ZM0.538209 8.79874L0.538414 8.79868L0.539632 8.79833L0.544477 8.79691L0.563617 8.7913L0.638279 8.76941L0.921722 8.68633L1.93382 8.38978C2.77165 8.14435 3.88934 7.81709 5.00874 7.48974C6.12815 7.16239 7.24923 6.83497 8.0939 6.58923C8.51624 6.46635 8.8694 6.36392 9.11866 6.29213C9.24331 6.25623 9.34184 6.22803 9.40999 6.20879C9.44411 6.19915 9.47037 6.19184 9.48839 6.18694L9.50832 6.18165L9.50873 6.18154C9.59891 6.17207 9.69127 6.17939 9.77883 6.20286L14.7762 7.67911L14.8952 7.71425L14.9043 7.59054C15.2104 3.4303 18.857 0.126042 23.3152 0.0852452L23.3153 0.0858077H23.3989C28.0968 0.0858077 31.9182 3.70394 31.9182 8.15508V8.17813C31.8754 10.5129 30.5741 12.6912 28.9585 14.7141C28.6311 15.1241 28.2836 15.5281 27.9341 15.9253L27.9092 15.9536V15.9914V28.6388C27.9087 28.9138 27.7011 29.1855 27.4172 29.2695L0.538209 8.79874ZM19.0892 16.183L19.2635 16.3765C19.8871 17.0689 20.5228 17.7385 21.1344 18.3813L21.2189 18.47C21.7998 19.0804 22.3576 19.6665 22.8591 20.2231M19.0892 16.183L22.7849 20.29M19.0892 16.183L19.0892 16.4434L19.0896 30.1863L19.0896 30.3199L19.2178 30.2823L26.4339 28.1624L26.5057 28.1413V28.0665V17.7414V17.4907L26.3332 17.6726C26.0838 17.9355 25.8362 18.1941 25.5929 18.4484C25.0011 19.0667 24.4342 19.659 23.9259 20.2231M19.0892 16.183L24.0002 20.29M22.8591 20.2231C22.8591 20.2231 22.8592 20.2231 22.8592 20.2231L22.7849 20.29M22.8591 20.2231C22.8591 20.223 22.859 20.223 22.859 20.2229L22.7849 20.29M22.8591 20.2231C22.9864 20.3635 23.1859 20.4384 23.3925 20.4384C23.5992 20.4384 23.7986 20.3635 23.9259 20.2231M22.7849 20.29C23.0849 20.6213 23.7001 20.6213 24.0002 20.29M23.9259 20.2231L24.0002 20.29M23.9259 20.2231C23.926 20.223 23.9261 20.223 23.9261 20.2229L24.0002 20.29M19.1892 16.4434L19.2892 16.4434L19.2892 16.5542C19.2558 16.5173 19.2225 16.4804 19.1892 16.4434ZM19.1892 16.4434L19.1149 16.5104C19.1397 16.5378 19.1644 16.5653 19.1892 16.5927L19.1892 16.4434ZM19.1896 30.1863L19.1615 30.0904L19.1896 30.0821L19.1896 30.1863ZM19.1896 30.1863L19.2896 30.1863V30.157L19.1896 30.1863ZM26.4057 17.7414V17.8866C26.4299 17.8612 26.4541 17.8357 26.4783 17.8102L26.4057 17.7414ZM26.4057 17.7414H26.3057V17.8467C26.339 17.8117 26.3724 17.7766 26.4057 17.7414ZM30.5144 8.1427L30.5144 8.14251C30.5073 4.40342 27.3271 1.40929 23.3987 1.40929C19.4705 1.40929 16.2902 4.40205 16.2831 8.14251V8.1427L16.2831 8.15466L16.2831 8.15673C16.3216 10.0197 17.4354 12.0076 18.961 13.9214C19.9675 15.1842 21.1259 16.4035 22.235 17.5709C22.6066 17.9621 22.9726 18.3474 23.3256 18.7265L23.3987 18.8051L23.4719 18.7265C23.8019 18.3722 24.1433 18.0117 24.4899 17.6456C25.6205 16.4515 26.8072 15.1983 27.8365 13.9095C29.3652 11.9957 30.4759 10.0192 30.5144 8.15673L30.5144 8.15673V8.15466L30.5144 8.1427ZM8.86609 7.88085V7.74725L8.7379 7.7849L1.52179 9.90477L1.44998 9.92586V10.0007V30.1867V30.3203L1.57816 30.2827L8.79427 28.1628L8.86609 28.1417V28.0669V7.88085ZM10.3976 7.78489L10.2695 7.74733L10.2695 7.88085L10.2696 28.067L10.2696 28.1418L10.3414 28.1629L17.5575 30.2828L17.6857 30.3205V30.1869V14.5511C17.6858 14.5497 17.686 14.5481 17.6861 14.5464C17.6863 14.5424 17.6864 14.5364 17.6857 14.5291V14.5171L17.6827 14.513C17.68 14.5028 17.6751 14.4906 17.6662 14.4786L17.6663 14.4786L17.6645 14.4764C16.3683 12.8149 15.2958 11.0553 14.9782 9.18602L14.9677 9.12439L14.9077 9.1068L10.3976 7.78489ZM19.2893 8.17863C19.2893 6.0376 21.134 4.27702 23.3987 4.27702C25.6638 4.27702 27.5082 6.0376 27.5082 8.17863C27.5082 10.3197 25.6635 12.0802 23.3987 12.0802C21.1337 12.0802 19.2893 10.3197 19.2893 8.17863ZM26.1044 8.17857C26.1044 6.74145 24.8977 5.60145 23.3987 5.60145C21.8998 5.60145 20.6931 6.74145 20.6931 8.17857C20.6931 9.61568 21.8998 10.7557 23.3987 10.7557C24.8977 10.7557 26.1044 9.61568 26.1044 8.17857Z" fill="#030303" stroke="#E6DBCA" stroke-width="0.2"/>
</g>
<defs>
<clipPath id="clip0_89_25">
<rect width="32" height="32" fill="white"/>
</clipPath>
</defs>
</svg>
