<svg width="48" height="48" viewBox="0 0 48 48" fill="none" xmlns="http://www.w3.org/2000/svg">
<path d="M47.8632 28.8301L42.5787 16.0994V5.42222C42.5787 3.50578 41.0882 2 39.1912 2H8.83895C6.94193 2 5.45142 3.50578 5.45142 5.42222V16.0994L0.166885 28.8301C0.0993052 28.9671 0.03125 29.1724 0.03125 29.3777V45.9413H2.74103L2.7415 38.9603H45.2211V45.9418H47.9308V38.1386H47.8633C47.9308 38.0016 47.9308 37.7963 47.9308 37.591V29.3778C47.9984 29.1725 47.9308 29.0354 47.8632 28.8301ZM8.16144 5.4221C8.16144 5.01151 8.43224 4.73746 8.83914 4.73746H39.1236C39.53 4.73746 39.8013 5.01103 39.8013 5.4221V15.6888H35.6685V10.6924C35.6685 9.93953 35.0589 9.32368 34.3136 9.32368H13.6497C12.9045 9.32368 12.2948 9.93957 12.2948 10.6924V15.6888H8.16207L8.16144 5.4221ZM33.0259 12.0612V19.385H25.3699V12.0612H33.0259ZM22.66 12.0612V19.385H15.0041V12.0612H22.66ZM45.2887 36.2221H2.7414V30.7464H45.221V36.2221H45.2887Z" fill="#D6B397"/>
</svg>
