<svg width="304" height="333" viewBox="0 0 304 333" fill="none" xmlns="http://www.w3.org/2000/svg">
<g clip-path="url(#clip0_218_141)">
<path d="M165.666 70.4942C163.64 68.4651 160.938 67.3201 158.082 67.3201C155.224 67.3201 152.471 68.4651 150.497 70.4942L15.3658 207.656C11.209 211.87 11.2616 218.634 15.4687 222.745C17.5471 224.827 20.2474 225.816 22.9502 225.816C25.7031 225.816 28.456 224.777 30.5346 222.642L158.08 93.1829L285.515 222.593C289.672 226.807 296.373 226.807 300.58 222.696C304.787 218.533 304.787 211.77 300.683 207.607L165.666 70.4942Z" fill="black" fill-opacity="0.15"/>
<path d="M70.6946 253.448H34.8998V302.777H123.167L123.169 209.684H192.266V302.771L281.206 302.774V288.621H226.344C224.266 288.621 222.604 286.956 222.604 284.874C222.604 282.792 224.266 281.127 226.344 281.127H281.206V232.527C280.116 231.798 279.075 230.914 278.14 229.978L266.971 218.635H217.046C214.967 218.635 213.305 216.97 213.305 214.888C213.305 212.807 214.967 211.142 217.046 211.142H259.595L158.084 108.01L87.8485 179.295H96.6813C98.7597 179.295 100.422 180.96 100.422 183.042C100.422 185.123 98.7598 186.788 96.6813 186.788H80.4196L56.4713 211.089H77.8223C79.9007 211.089 81.563 212.754 81.563 214.835C81.563 216.917 79.9008 218.582 77.8223 218.582H49.04L37.8706 229.925C36.9355 230.914 35.8974 231.746 34.8044 232.474V245.899H70.5993C72.6777 245.899 74.34 247.564 74.34 249.645C74.4428 251.78 72.7806 253.445 70.7022 253.445L70.6946 253.448ZM203.279 245.902H239.074C241.152 245.902 242.815 247.567 242.815 249.648C242.815 251.73 241.152 253.395 239.074 253.395H203.279C201.201 253.395 199.538 251.73 199.538 249.648C199.486 247.619 201.201 245.902 203.279 245.902ZM170.653 146.774L196.994 171.075V195.843H170.653V146.774ZM119.066 171.075L145.406 146.774V195.79H119.066V171.075ZM108.155 281.075C110.233 281.075 111.896 282.74 111.896 284.822C111.896 286.904 110.233 288.569 108.155 288.569H47.5814C45.503 288.569 43.8407 286.904 43.8407 284.822C43.8407 282.74 45.503 281.075 47.5814 281.075H108.155Z" fill="black" fill-opacity="0.15"/>
<path d="M292.067 313.179H23.3709C19.2667 313.179 15.8894 316.509 15.8894 320.673L15.8918 333.161H299.546V320.673C299.543 316.509 296.219 313.179 292.064 313.179H292.067Z" fill="black" fill-opacity="0.15"/>
<path d="M242.918 73.1495C258.192 73.1495 271.387 64.1996 277.517 51.2421C272.531 53.5825 267.022 54.936 261.101 54.936C239.955 54.936 222.811 37.7647 222.811 16.5858C222.811 10.7071 224.11 5.13745 226.499 0.143066C213.562 6.28302 204.627 19.4988 204.627 34.7971C204.631 55.9785 221.775 73.1495 242.918 73.1495Z" fill="black" fill-opacity="0.15"/>
<path d="M16.0481 86.6781V81.7337H20.9846C23.063 81.7337 24.7253 80.0688 24.7253 77.9871C24.7253 75.9054 23.0631 74.2404 20.9846 74.2404L16.0481 74.2428V69.2984C16.0481 67.2167 14.3858 65.5518 12.3074 65.5518C10.229 65.5518 8.56666 67.2166 8.56666 69.2984V74.2428H3.63011C1.5517 74.2428 -0.110596 75.9077 -0.110596 77.9895C-0.110596 80.0712 1.55164 81.7361 3.63011 81.7361H8.56666V86.6805C8.56666 88.7622 10.2289 90.4272 12.3074 90.4272C14.3858 90.4248 16.0481 88.7598 16.0481 86.6781Z" fill="black" fill-opacity="0.15"/>
<path d="M97.7637 40.4175H102.7V45.3619C102.7 47.4436 104.362 49.1086 106.441 49.1086C108.519 49.1086 110.182 47.4437 110.182 45.3619V40.4175H115.118C117.197 40.4175 118.859 38.7526 118.859 36.6709C118.859 34.5891 117.197 32.9242 115.118 32.9242H110.182V27.9295C110.182 25.8478 108.519 24.1829 106.441 24.1829C104.362 24.1829 102.7 25.8477 102.7 27.9295V32.8739H97.7637C95.6853 32.8739 94.0229 34.5388 94.0229 36.6206C94.0229 38.7023 95.7379 40.4175 97.7637 40.4175Z" fill="black" fill-opacity="0.15"/>
<path d="M282.711 142.092H287.647V147.037C287.647 149.118 289.31 150.783 291.388 150.783C293.467 150.783 295.129 149.118 295.129 147.037V142.092H300.065C302.144 142.092 303.806 140.427 303.806 138.346C303.806 136.264 302.144 134.599 300.065 134.599H295.129V129.654C295.129 127.573 293.467 125.908 291.388 125.908C289.31 125.908 287.647 127.573 287.647 129.654V134.599H282.711C280.632 134.599 278.97 136.264 278.97 138.346C278.97 140.427 280.632 142.092 282.711 142.092Z" fill="black" fill-opacity="0.15"/>
<path d="M47.4215 160.306L93.4005 113.684V93.703H101.867L101.92 74.2418L38.9033 74.0861V93.5472H47.4227L47.4215 160.306Z" fill="black" fill-opacity="0.15"/>
</g>
<defs>
<clipPath id="clip0_218_141">
<rect width="304" height="333" fill="white"/>
</clipPath>
</defs>
</svg>
