<svg width="32" height="32" viewBox="0 0 32 32" fill="none" xmlns="http://www.w3.org/2000/svg">
<g clip-path="url(#clip0_89_120)">
<path d="M31.9861 12.5434C31.9861 12.393 31.9136 12.2496 31.7882 12.1516L28.6099 9.67564V5.44899C28.6099 4.63634 27.8821 3.97511 26.9876 3.97511L21.33 3.97536C21.3246 3.97071 21.3209 3.96554 21.315 3.96141L16.3482 0.123924C16.1352 -0.0401609 15.8226 -0.0393869 15.6105 0.125474L10.6693 3.97533H4.81214C3.91767 3.97533 3.18986 4.63657 3.18986 5.44922V9.80194L0.173053 12.1523C0.0473394 12.2502 -0.0249023 12.3934 -0.0249023 12.544C-0.0249023 12.5497 -0.0231958 12.5554 -0.0229114 12.5611V30.6372C-0.0229114 31.3796 0.642047 31.9837 1.45863 31.9837L30.5062 31.9832C31.3233 31.9832 31.9877 31.379 31.9877 30.6367L31.988 12.5434L31.9861 12.5434ZM11.5833 21.8235L1.11251 29.9805V13.6666L11.5833 21.8235ZM12.4554 22.5031L15.6107 24.9612C15.7167 25.0439 15.8487 25.0855 15.9801 25.0855C16.1115 25.0855 16.2435 25.0439 16.3496 24.9612L19.5049 22.5031L30.3484 30.9504H1.61107L12.4554 22.5031ZM20.3778 21.8237L30.853 13.6635V29.984L20.3778 21.8237ZM30.5465 12.5429L28.6096 14.0514V11.0342L30.5465 12.5429ZM15.9823 1.19489L19.5804 3.9747H12.4143L15.9823 1.19489ZM4.81249 5.00624H26.9882C27.2567 5.00624 27.4752 5.20469 27.4752 5.44862V9.81273C27.4632 9.87293 27.4635 9.93365 27.4752 9.99386V14.9365L15.9814 23.8892L4.32667 14.8095V5.44798C4.32695 5.20379 4.5451 5.00586 4.8133 5.00586L4.81249 5.00624ZM3.1908 11.16V13.9258L1.41547 12.5432L3.1908 11.16ZM15.9005 18.6217C17.0652 18.6217 18.2116 18.3457 19.2168 17.8238C19.489 17.6824 19.5834 17.3672 19.4278 17.1199C19.2717 16.8726 18.9253 16.7865 18.6531 16.9281C17.8192 17.3612 16.8672 17.5904 15.9005 17.5904C12.8368 17.5904 10.3444 15.3259 10.3444 12.5426C10.3444 9.75942 12.837 7.49478 15.9005 7.49478C18.9639 7.49478 21.4562 9.75935 21.4562 12.5426C21.4562 14.3031 20.5782 14.9705 19.9884 14.9899C19.5399 15.008 19.2088 14.6803 19.1613 14.1617V12.6307C19.1622 12.6012 19.1665 12.5725 19.1665 12.5425C19.1665 12.5126 19.1622 12.4839 19.1613 12.4544V10.0973C19.1613 9.8123 18.9071 9.58129 18.5934 9.58129C18.2797 9.58129 18.0254 9.8123 18.0254 10.0973V10.2947C17.4537 9.84796 16.712 9.57588 15.9002 9.57588C14.0996 9.57588 12.6345 10.9069 12.6345 12.5428C12.6345 14.1788 14.0995 15.5098 15.9002 15.5098C16.7605 15.5098 17.5419 15.2036 18.1257 14.708C18.3899 15.5188 19.1291 16.0506 20.0288 16.0212C21.2631 15.9806 22.5913 14.8755 22.5913 12.5432C22.5913 9.19095 19.5899 6.46386 15.8999 6.46386C12.2096 6.46386 9.20882 9.19049 9.20882 12.5424C9.20882 15.8946 12.2106 18.6217 15.9005 18.6217L15.9005 18.6217ZM15.9005 14.4777C14.7256 14.4777 13.7702 13.6095 13.7702 12.5423C13.7702 11.4751 14.7259 10.6069 15.9005 10.6069C17.0422 10.6069 17.9744 11.4278 18.0257 12.4542V12.6304C17.9748 13.6568 17.0428 14.4777 15.9005 14.4777V14.4777Z" fill="#030303"/>
</g>
<defs>
<clipPath id="clip0_89_120">
<rect width="32" height="32" fill="white"/>
</clipPath>
</defs>
</svg>
