<svg width="32" height="32" viewBox="0 0 32 32" fill="none" xmlns="http://www.w3.org/2000/svg">
<g clip-path="url(#clip0_217_41)">
<path d="M31.9861 12.5432C31.9861 12.3929 31.9136 12.2494 31.7882 12.1515L28.6099 9.67551V5.44887C28.6099 4.63622 27.8821 3.97498 26.9876 3.97498L21.33 3.97524C21.3246 3.97059 21.3209 3.96542 21.315 3.96129L16.3482 0.123802C16.1352 -0.040283 15.8226 -0.039509 15.6105 0.125352L10.6693 3.97521H4.81214C3.91767 3.97521 3.18986 4.63645 3.18986 5.44909V9.80182L0.173053 12.1522C0.0473394 12.2501 -0.0249023 12.3933 -0.0249023 12.5439C-0.0249023 12.5496 -0.0231958 12.5553 -0.0229114 12.561V30.6371C-0.0229114 31.3795 0.642047 31.9836 1.45863 31.9836L30.5062 31.9831C31.3233 31.9831 31.9877 31.3789 31.9877 30.6366L31.988 12.5433L31.9861 12.5432ZM11.5833 21.8234L1.11251 29.9803V13.6665L11.5833 21.8234ZM12.4554 22.503L15.6107 24.9611C15.7167 25.0438 15.8487 25.0854 15.9801 25.0854C16.1115 25.0854 16.2435 25.0438 16.3496 24.9611L19.5049 22.503L30.3484 30.9503H1.61107L12.4554 22.503ZM20.3778 21.8236L30.853 13.6634V29.9839L20.3778 21.8236ZM30.5465 12.5428L28.6096 14.0513V11.034L30.5465 12.5428ZM15.9823 1.19476L19.5804 3.97458H12.4143L15.9823 1.19476ZM4.81249 5.00612H26.9882C27.2567 5.00612 27.4752 5.20457 27.4752 5.4485V9.8126C27.4632 9.87281 27.4635 9.93353 27.4752 9.99374V14.9364L15.9814 23.8891L4.32667 14.8094V5.44786C4.32695 5.20367 4.5451 5.00574 4.8133 5.00574L4.81249 5.00612ZM3.1908 11.1598V13.9257L1.41547 12.543L3.1908 11.1598ZM15.9005 18.6216C17.0652 18.6216 18.2116 18.3456 19.2168 17.8237C19.489 17.6823 19.5834 17.3671 19.4278 17.1197C19.2717 16.8725 18.9253 16.7864 18.6531 16.928C17.8192 17.3611 16.8672 17.5903 15.9005 17.5903C12.8368 17.5903 10.3444 15.3257 10.3444 12.5425C10.3444 9.75929 12.837 7.49465 15.9005 7.49465C18.9639 7.49465 21.4562 9.75923 21.4562 12.5425C21.4562 14.3029 20.5782 14.9704 19.9884 14.9898C19.5399 15.0079 19.2088 14.6802 19.1613 14.1616V12.6305C19.1622 12.6011 19.1665 12.5724 19.1665 12.5424C19.1665 12.5124 19.1622 12.4838 19.1613 12.4543V10.0972C19.1613 9.81217 18.9071 9.58117 18.5934 9.58117C18.2797 9.58117 18.0254 9.81217 18.0254 10.0972V10.2946C17.4537 9.84784 16.712 9.57575 15.9002 9.57575C14.0996 9.57575 12.6345 10.9068 12.6345 12.5427C12.6345 14.1787 14.0995 15.5097 15.9002 15.5097C16.7605 15.5097 17.5419 15.2035 18.1257 14.7079C18.3899 15.5187 19.1291 16.0505 20.0288 16.0211C21.2631 15.9805 22.5913 14.8754 22.5913 12.543C22.5913 9.19083 19.5899 6.46373 15.8999 6.46373C12.2096 6.46373 9.20882 9.19037 9.20882 12.5423C9.20882 15.8945 12.2106 18.6216 15.9005 18.6216L15.9005 18.6216ZM15.9005 14.4776C14.7256 14.4776 13.7702 13.6094 13.7702 12.5422C13.7702 11.475 14.7259 10.6068 15.9005 10.6068C17.0422 10.6068 17.9744 11.4277 18.0257 12.4541V12.6303C17.9748 13.6567 17.0428 14.4776 15.9005 14.4776V14.4776Z" fill="#E6DBCA"/>
</g>
<defs>
<clipPath id="clip0_217_41">
<rect width="32" height="32" fill="white"/>
</clipPath>
</defs>
</svg>
