<svg width="48" height="48" viewBox="0 0 48 48" fill="none" xmlns="http://www.w3.org/2000/svg">
<g clip-path="url(#clip0_243_48)">
<path d="M18.6135 12.2749C18.1245 11.3274 17.7531 10.4786 17.7531 10.4786L18.5382 10.595C18.5382 10.595 17.7298 9.32785 17.3607 8.6745C16.9593 7.96369 16.0851 5.76469 16.0851 5.76469C16.0851 5.76469 15.1691 8.44159 14.7113 9.40208C14.2381 10.3945 12.9124 12.3991 12.9124 12.3991L13.7303 12.2244C13.7303 12.2244 13.6053 12.3093 13.4684 12.6026C13.4235 12.6993 12.5851 13.7666 12.5851 13.7666L13.403 13.592C13.403 13.592 13.3702 13.9995 12.7815 15.2795C12.0091 16.9599 10.6881 18.8465 10.6881 18.8465L12.1928 18.6136C12.1928 18.6136 12.0619 19.5132 11.4732 20.6041C10.4286 22.5398 9.42699 22.99 9.42699 22.99L10.7929 22.8153C10.7929 22.8153 10.1667 25.058 9.37964 26.598C8.15294 28.9988 7.08977 30.2788 7.08977 30.2788L9.94817 29.7312C9.94817 29.7312 9.48287 31.1261 8.95408 32.3518C8.14454 34.2285 6.69702 35.2688 6.69702 35.2688L9.47739 34.7159L8.20173 35.7635L12.0661 34.9359C13.7379 32.0458 14.0081 31.5245 14.0081 31.5245L12.2825 31.779L14.734 28.6752L12.3767 29.0108C12.3767 29.0108 13.6968 26.9138 15.3941 24.2296C16.8692 21.8971 17.5183 19.937 17.5183 19.937L15.3941 20.4549C15.3941 20.4549 16.6247 18.5222 16.997 18.0222C17.5143 17.3278 18.2568 15.569 18.2568 15.569L15.8912 16.249C15.8912 16.249 17.7275 13.6246 18.3167 12.7375C18.4156 12.591 18.5142 12.4358 18.6132 12.2748L18.6135 12.2749Z" fill="#D6B397"/>
<path d="M43.189 33.3842C42.952 33.0969 41.7257 31.4398 41.7257 31.4398L43.7276 31.7C43.7276 31.7 42.0912 30.506 40.9421 28.6422C39.8131 26.8111 39.6314 26.4831 39.6314 26.4831L40.7087 26.6129L39.1298 24.7236L40.6014 24.8933C40.6014 24.8933 39.7438 23.6113 38.6412 21.9705C37.683 20.5447 37.245 19.3366 37.245 19.3366L38.4824 19.8019C38.4824 19.8019 37.7753 18.4424 37.5352 18.1379C37.2012 17.7144 36.7087 16.6338 36.7087 16.6338L38.1914 17.0177C38.1914 17.0177 37.0037 15.4165 36.6216 14.8747C35.827 13.7476 34.9532 11.8918 34.9532 11.8918L35.6595 11.9774C35.6595 11.9774 34.9028 10.861 34.5553 10.2845C34.1772 9.65701 33.338 7.70724 33.338 7.70724C33.338 7.70724 32.5853 10.1277 32.1996 10.9991C31.8006 11.8998 30.6637 13.7274 30.6637 13.7274L31.392 13.5516C31.392 13.5516 31.2824 13.6308 31.1673 13.8968C31.1377 13.9653 30.6905 14.5745 30.4954 14.8389C30.5111 14.8682 30.5269 14.8979 30.5427 14.9272L31.1338 14.7845C31.1338 14.7845 31.3081 15.0802 31.0928 15.6749C32.2296 17.6575 33.5817 19.4798 33.5817 19.4798L31.2198 19.1126C31.2198 19.1126 31.6298 20.4927 32.5226 22.0425C34.1065 24.7918 35.7682 25.6202 35.7682 25.6202L33.2236 25.2922C33.2236 25.2922 34.1716 28.3215 35.3683 30.5106C36.4295 32.4516 37.6306 33.8721 38.2697 34.7362C38.7776 34.8523 39.2173 34.947 39.2173 34.947L38.2153 33.8284C38.2153 33.8284 40.2382 34.3021 40.8995 34.3577C41.7008 34.425 44.0663 34.3196 44.0663 34.3196C44.0663 34.32 43.8076 34.1339 43.1889 33.3843L43.189 33.3842Z" fill="#D6B397"/>
<path d="M31.1721 36.1575C31.1721 36.1575 31.4714 37.0552 31.8977 38.1777L31.7632 36.2709L31.1721 36.1575Z" fill="#D6B397"/>
<path d="M27.2415 15.9591L27.3795 15.9298C27.3645 15.8997 27.3495 15.87 27.3349 15.84C27.2777 15.913 27.2415 15.9591 27.2415 15.9591Z" fill="#D6B397"/>
<path d="M36.2216 27.8755H37.1877L36.1372 27.7207C36.1372 27.7207 36.1565 27.758 36.2216 27.8755Z" fill="#D6B397"/>
<path d="M47.3561 24.8587C47.1909 24.6467 46.34 23.4276 46.34 23.4276L47.7792 23.6536C47.7792 23.6536 46.6227 22.7609 45.8317 21.3937C45.0545 20.0505 44.9299 19.8104 44.9299 19.8104L45.7047 19.9246L44.6042 18.5311L45.6625 18.6818C45.6625 18.6818 45.0699 17.7404 44.3076 16.5349C43.6456 15.4873 43.3541 14.6076 43.3541 14.6076L44.3076 14.8401C44.3076 14.8401 43.7552 13.9725 43.588 13.748C43.3557 13.436 43.0221 12.6467 43.0221 12.6467L44.0841 12.9519C44.0841 12.9519 43.2595 11.7734 42.995 11.3754C42.4445 10.547 41.8519 9.19081 41.8519 9.19081L42.3597 9.26616C42.3597 9.26616 41.8365 8.44614 41.5975 8.02337C41.3377 7.56332 40.7718 6.14019 40.7718 6.14019C40.7718 6.14019 40.1791 7.87267 39.8826 8.49406C39.5762 9.13638 38.7186 10.4335 38.7186 10.4335L39.2478 10.3205C39.2478 10.3205 39.1669 10.3757 39.0786 10.5652C39.0494 10.6276 38.5072 11.3186 38.5072 11.3186L39.0364 11.2056C39.0364 11.2056 39.0151 11.4693 38.6342 12.2977C38.1342 13.3852 37.2793 14.6063 37.2793 14.6063L38.2529 14.4556C38.2529 14.4556 38.1709 15.0191 37.8049 15.7098C37.842 15.7684 37.8791 15.8258 37.9161 15.8814C38.2825 16.4331 39.4244 18.0652 39.4244 18.0652L37.9532 17.6424C37.9532 17.6424 38.4149 18.7361 38.7367 19.1679C38.9682 19.4788 39.7335 20.6808 39.7335 20.6808L38.4125 20.3585C38.4125 20.3585 39.047 21.5773 39.9646 23.0282C41.0202 24.6976 41.3644 25.3501 41.3644 25.3501L40.1258 25.1736L41.6038 27.0705H40.4491L40.8648 27.798L42.6251 27.7204C42.8597 27.8011 42.226 25.2269 42.739 25.443C43.0182 25.5606 44.4574 25.9103 44.4574 25.9103L43.7571 25.0838C43.7571 25.0838 45.207 25.4643 45.6834 25.5168C46.2603 25.5808 47.9696 25.5499 47.9696 25.5499C47.97 25.5507 47.787 25.4114 47.356 24.8585L47.3561 24.8587Z" fill="#D6B397"/>
<path d="M30.4979 25.1733C30.3413 25.3164 30.238 25.3906 30.238 25.3906L30.6304 25.3126C30.587 25.2681 30.5432 25.222 30.4987 25.1741L30.4979 25.1733Z" fill="#D6B397"/>
<path d="M30.4988 25.1743C30.5429 25.2222 30.5871 25.2683 30.6305 25.3128C30.5871 25.2683 30.5433 25.2222 30.4988 25.1743Z" fill="#D6B397"/>
<path d="M12.6183 32.866C12.6179 32.8668 12.6175 32.868 12.6167 32.8688C12.6171 32.8676 12.6175 32.8668 12.6183 32.866Z" fill="#D6B397"/>
<path d="M12.2378 33.5352C12.2447 33.5226 12.2521 33.5101 12.259 33.4975C12.2521 33.5097 12.2447 33.5223 12.2378 33.5352Z" fill="#D6B397"/>
<path d="M12.6747 32.7656C12.6719 32.771 12.6689 32.7763 12.6658 32.7816C12.6689 32.7763 12.6716 32.771 12.6747 32.7656Z" fill="#D6B397"/>
<path d="M12.717 32.6897C12.7135 32.6961 12.7097 32.703 12.7058 32.7098C12.7097 32.7034 12.7135 32.6961 12.717 32.6897Z" fill="#D6B397"/>
<path d="M7.9687 32.7822C7.98053 32.7548 7.99235 32.7274 8.00379 32.7L7.99393 32.5687C8.01483 32.5714 8.03534 32.5741 8.05584 32.5771C8.54756 31.4062 8.96278 30.5181 8.96278 30.5181L6.10439 30.9762C6.10439 30.9762 7.25972 29.4287 8.48652 27.028C9.27359 25.488 10.0843 23.3343 10.0843 23.3343L8.21013 23.5535C8.21013 23.5535 9.10011 23.0676 10.0276 21.6517C9.76494 21.2263 9.55122 20.697 9.32094 20.1959C8.94003 19.3675 8.91873 19.1038 8.91873 19.1038L9.44791 19.2168C9.44791 19.2168 8.90572 18.5262 8.87654 18.4634C8.78821 18.2735 8.70737 18.2187 8.70737 18.2187L9.23655 18.3317C9.23655 18.3317 8.37851 17.0346 8.07254 16.3923C7.7764 15.7709 7.18334 14.0384 7.18334 14.0384C7.18334 14.0384 6.61749 15.4615 6.35763 15.9216C6.11867 16.3443 5.5954 17.1643 5.5954 17.1643L6.10329 17.089C6.10329 17.089 5.51062 18.4448 4.96017 19.2736C4.69558 19.672 3.87106 20.8501 3.87106 20.8501L4.93301 20.5449C4.93301 20.5449 4.59942 21.3345 4.36716 21.6462C4.19997 21.8707 3.64752 22.7383 3.64752 22.7383L4.60099 22.5058C4.60099 22.5058 4.30959 23.3859 3.64752 24.4331C2.8853 25.6382 2.29262 26.58 2.29262 26.58L3.35094 26.4293L2.25042 27.8228L3.02527 27.7086C3.02527 27.7086 2.90105 27.9487 2.12345 29.2919C1.33245 30.6587 0.175896 31.5518 0.175896 31.5518L1.61519 31.3258C1.61519 31.3258 0.764242 32.545 0.599063 32.7569C0.168073 33.3098 -0.0148926 33.449 -0.0148926 33.449C-0.0148926 33.449 1.69453 33.4799 2.27134 33.4159C2.74769 33.363 4.1976 32.9829 4.1976 32.9829L3.49728 33.8094C3.49728 33.8094 4.93658 33.4597 5.21569 33.3421C5.7287 33.126 6.01578 33.0046 6.2504 32.9239L5.89117 35.398C6.37461 34.9623 7.41404 34.0688 7.96884 32.7823L7.9687 32.7822Z" fill="#D6B397"/>
<path d="M9.97139 41.6565C10.3393 41.1846 12.2344 38.4689 12.2344 38.4689L9.02815 38.9723C9.02815 38.9723 11.6039 36.9837 13.3657 33.9392C15.0975 30.9479 15.3747 30.4133 15.3747 30.4133L14.0186 30.6679L16.1472 27.5641L13.7438 28.0777C13.7438 28.0777 15.0639 25.8023 16.7611 23.1181C18.2355 20.7859 18.8846 18.8259 18.8846 18.8259L16.7603 19.3438C16.7603 19.3438 17.991 17.4111 18.3633 16.9111C18.8806 16.2167 19.6231 14.4579 19.6231 14.4579L17.2575 15.1378C17.2575 15.1378 19.0938 12.5135 19.6829 11.6264C20.9089 9.78094 22.2287 6.76116 22.2287 6.76116L21.0974 6.92897C21.0974 6.92897 22.263 5.10248 22.7945 4.16109C23.3734 3.13631 24.6332 -0.0330048 24.6332 -0.0330048C24.6332 -0.0330048 25.9534 3.82541 26.6135 5.20973C27.2957 6.64053 29.2066 9.52939 29.2066 9.52939L28.028 9.27788C28.028 9.27788 28.2082 9.4004 28.4049 9.82316C28.47 9.96243 29.6778 11.5009 29.6778 11.5009L28.4991 11.2494C28.4991 11.2494 28.5465 11.8365 29.395 13.6821C30.5086 16.104 32.4124 18.8236 32.4124 18.8236L30.2437 18.488C30.2437 18.488 30.4322 19.7844 31.2807 21.3571C32.7862 24.1474 34.0603 24.8407 34.0603 24.8407L32.261 24.5443C32.261 24.5443 33.1636 27.7772 34.2981 29.9968C36.0663 33.4569 37.5985 35.3023 37.5985 35.3023L33.4787 34.5135C33.4787 34.5135 34.1495 36.5242 34.9116 38.2909C36.0785 40.996 38.1648 42.4956 38.1648 42.4956L34.1574 41.6984L35.9961 43.2083L28.3585 41.5729C28.3585 41.5729 27.4859 41.3735 26.4409 41.2395L26.9441 48.0314L22.1353 48.0318L22.5592 42.028C22.0367 42.208 21.3971 42.4781 20.2548 42.9595C19.6329 43.2216 16.4275 44.0002 16.4275 44.0002L17.987 42.1596C17.987 42.1596 14.7572 43.007 13.6968 43.1242C12.4118 43.2665 8.60498 43.1977 8.60498 43.1977C8.60419 43.198 9.01113 42.8879 9.97129 41.6566L9.97139 41.6565Z" fill="#D6B397"/>
</g>
<defs>
<clipPath id="clip0_243_48">
<rect width="48" height="48" fill="white"/>
</clipPath>
</defs>
</svg>
