<svg width="395" height="371" viewBox="0 0 395 371" fill="none" xmlns="http://www.w3.org/2000/svg">
<g clip-path="url(#clip0_218_58)">
<path d="M112.593 272.777C110.397 272.144 108.22 271.435 106.066 270.646C81.0306 261.504 63.3221 242.755 54.8619 216.44C33.5519 150.191 56.2603 95.9723 117.165 67.6865C197.502 30.3693 333.619 47.5534 382.136 124.822C382.926 126.079 383.144 127.613 382.74 129.041C382.336 130.469 381.343 131.656 380.009 132.311C333.069 155.357 305.018 181.475 277.887 206.739C258.285 224.993 239.766 242.234 215.209 257.591C190.922 272.778 149.36 283.387 112.591 272.783L112.593 272.777ZM64.8452 213.241C72.39 236.693 87.4693 252.698 109.665 260.808C143.052 272.958 185.247 263.954 209.638 248.701C233.345 233.88 251.505 216.969 270.731 199.066C297.384 174.251 324.903 148.623 370.044 125.568C321.675 56.7557 196.406 42.4316 121.584 77.1857C88.9279 92.3521 38.1298 130.2 64.8431 213.242L64.8452 213.241Z" fill="black" fill-opacity="0.07"/>
<path d="M5.78947 281.353C5.3043 281.213 4.83403 281.003 4.3914 280.716C1.95809 279.144 1.25897 275.9 2.83533 273.471C59.938 185.279 137.852 134.296 241.039 117.628C243.897 117.172 246.591 119.108 247.057 121.966C247.52 124.823 245.579 127.511 242.719 127.975C142.633 144.145 67.0437 193.594 11.6426 279.161C10.3583 281.149 7.95228 281.974 5.78893 281.35L5.78947 281.353Z" fill="black" fill-opacity="0.07"/>
<path d="M82.7891 195.186C80.1312 194.42 78.5065 191.699 79.1327 188.974C79.7835 186.154 82.5957 184.396 85.4217 185.046L168.729 204.246C171.51 204.921 173.311 207.707 172.664 210.531C172.013 213.351 169.201 215.109 166.375 214.458L83.0677 195.259C82.9733 195.234 82.8805 195.213 82.7891 195.186Z" fill="black" fill-opacity="0.07"/>
<path d="M200.516 174.052C200.451 174.033 200.385 174.014 200.318 173.992L146.021 156.024C143.273 155.115 141.78 152.148 142.689 149.4C143.598 146.655 146.469 145.097 149.317 146.075L203.614 164.041C206.363 164.95 207.856 167.917 206.946 170.665C206.059 173.345 203.212 174.829 200.516 174.052Z" fill="black" fill-opacity="0.07"/>
<path d="M231.255 148.712C230.919 148.615 230.594 148.486 230.276 148.32L204.277 134.761C201.705 133.423 200.71 130.255 202.05 127.693C203.388 125.122 206.568 124.14 209.124 125.473L235.123 139.032C237.695 140.37 238.69 143.538 237.349 146.1C236.18 148.35 233.601 149.388 231.255 148.712Z" fill="black" fill-opacity="0.07"/>
<path d="M109.836 175.929C107.16 175.157 105.538 172.41 106.192 169.677L117.973 120.379C118.642 117.565 121.473 115.83 124.29 116.503C127.053 117.214 128.846 120.003 128.174 122.817L116.392 172.115C115.723 174.929 112.892 176.664 110.075 175.991C109.994 175.972 109.916 175.952 109.836 175.929Z" fill="black" fill-opacity="0.07"/>
<path d="M183.534 141.466C183.468 141.447 183.405 141.429 183.34 141.407C180.591 140.5 179.092 137.537 179.999 134.789L189.794 105.079C190.696 102.329 193.65 100.767 196.417 101.745C199.167 102.652 200.665 105.615 199.758 108.364L189.963 138.074C189.08 140.758 186.232 142.244 183.534 141.466Z" fill="black" fill-opacity="0.07"/>
</g>
<defs>
<clipPath id="clip0_218_58">
<rect width="325.506" height="291.45" fill="white" transform="translate(81.248) rotate(16.0887)"/>
</clipPath>
</defs>
</svg>
