<svg width="278" height="82" viewBox="0 0 278 82" fill="none" xmlns="http://www.w3.org/2000/svg">
<path d="M120.496 54V46.044L121.936 47.304H115.024C112.84 47.304 110.956 46.944 109.372 46.224C107.788 45.504 106.576 44.46 105.736 43.092C104.896 41.724 104.476 40.092 104.476 38.196C104.476 36.228 104.92 34.548 105.808 33.156C106.72 31.74 107.992 30.66 109.624 29.916C111.256 29.172 113.176 28.8 115.384 28.8H126.256V54H120.496ZM104.548 54L110.812 44.964H116.716L110.704 54H104.548ZM120.496 44.172V32.04L121.936 33.552H115.528C113.872 33.552 112.6 33.936 111.712 34.704C110.848 35.472 110.416 36.612 110.416 38.124C110.416 39.588 110.836 40.716 111.676 41.508C112.516 42.3 113.752 42.696 115.384 42.696H121.936L120.496 44.172ZM132.138 54V34.632H137.718V42.192H146.142V34.632H151.758V54H146.142V46.764H137.718V54H132.138ZM159.762 61.272C158.754 61.272 157.758 61.116 156.774 60.804C155.79 60.492 154.986 60.06 154.362 59.508L156.414 55.512C156.846 55.896 157.338 56.196 157.89 56.412C158.466 56.628 159.03 56.736 159.582 56.736C160.374 56.736 160.998 56.544 161.454 56.16C161.934 55.8 162.366 55.188 162.75 54.324L163.758 51.948L164.19 51.336L171.138 34.632H176.538L167.79 55.188C167.166 56.748 166.446 57.972 165.63 58.86C164.838 59.748 163.95 60.372 162.966 60.732C162.006 61.092 160.938 61.272 159.762 61.272ZM163.074 54.756L154.434 34.632H160.23L166.926 50.832L163.074 54.756ZM192.459 49.392L191.235 50.688V34.632H196.851V50.688L195.555 49.392H204.483L203.223 50.688V34.632H208.803V54H179.247V34.632H184.827V50.688L183.567 49.392H192.459ZM227.908 54L221.428 44.82L226 42.12L234.532 54H227.908ZM214.192 54V34.632H219.808V54H214.192ZM218.152 46.656V42.156H224.92V46.656H218.152ZM226.54 44.964L221.284 44.388L228.088 34.632H234.064L226.54 44.964ZM248.53 54V50.22L248.17 49.392V42.624C248.17 41.424 247.798 40.488 247.054 39.816C246.334 39.144 245.218 38.808 243.706 38.808C242.674 38.808 241.654 38.976 240.646 39.312C239.662 39.624 238.822 40.056 238.126 40.608L236.11 36.684C237.166 35.94 238.438 35.364 239.926 34.956C241.414 34.548 242.926 34.344 244.462 34.344C247.414 34.344 249.706 35.04 251.338 36.432C252.97 37.824 253.786 39.996 253.786 42.948V54H248.53ZM242.626 54.288C241.114 54.288 239.818 54.036 238.738 53.532C237.658 53.004 236.83 52.296 236.254 51.408C235.678 50.52 235.39 49.524 235.39 48.42C235.39 47.268 235.666 46.26 236.218 45.396C236.794 44.532 237.694 43.86 238.918 43.38C240.142 42.876 241.738 42.624 243.706 42.624H248.854V45.9H244.318C242.998 45.9 242.086 46.116 241.582 46.548C241.102 46.98 240.862 47.52 240.862 48.168C240.862 48.888 241.138 49.464 241.69 49.896C242.266 50.304 243.046 50.508 244.03 50.508C244.966 50.508 245.806 50.292 246.55 49.86C247.294 49.404 247.834 48.744 248.17 47.88L249.034 50.472C248.626 51.72 247.882 52.668 246.802 53.316C245.722 53.964 244.33 54.288 242.626 54.288ZM256.073 54L264.749 42.624L264.641 45.72L256.325 34.632H262.625L267.881 41.868L265.505 41.94L270.941 34.632H276.917L268.565 45.612V42.588L277.205 54H270.833L265.325 46.296L267.665 46.62L262.193 54H256.073Z" fill="#E6DBCA"/>
<g clip-path="url(#clip0_216_5)">
<path d="M4.12922 43.4898L-0.0454102 38.6015L45.4383 0.0317383L90.9546 38.6015L86.78 43.4898L45.44 8.467L4.13066 43.4898" fill="#E6DBCA"/>
<path d="M10.5461 44.4531V82.0594H80.3309V44.4531L73.9134 39.0054V75.6447H16.9968V39.0054L10.5476 44.4531" fill="#E6DBCA"/>
<path d="M34.132 61V35.8H45.868C48.796 35.8 51.076 36.364 52.708 37.492C54.34 38.62 55.156 40.228 55.156 42.316C55.156 44.38 54.388 45.988 52.852 47.14C51.316 48.268 49.276 48.832 46.732 48.832L47.416 47.32C50.248 47.32 52.444 47.884 54.004 49.012C55.564 50.14 56.344 51.772 56.344 53.908C56.344 56.116 55.504 57.856 53.824 59.128C52.168 60.376 49.744 61 46.552 61H34.132ZM39.928 56.68H46.336C47.68 56.68 48.7 56.416 49.396 55.888C50.092 55.36 50.44 54.544 50.44 53.44C50.44 52.384 50.092 51.604 49.396 51.1C48.7 50.572 47.68 50.308 46.336 50.308H39.928V56.68ZM39.928 46.24H45.364C46.636 46.24 47.596 45.988 48.244 45.484C48.892 44.956 49.216 44.188 49.216 43.18C49.216 42.172 48.892 41.416 48.244 40.912C47.596 40.384 46.636 40.12 45.364 40.12H39.928V46.24Z" fill="#E6DBCA"/>
</g>
<defs>
<clipPath id="clip0_216_5">
<rect width="91" height="82" fill="white"/>
</clipPath>
</defs>
</svg>
