<svg width="202" height="53" viewBox="0 0 202 53" fill="none" xmlns="http://www.w3.org/2000/svg">
<path d="M84.122 36V30.033L85.202 30.978H80.018C78.38 30.978 76.967 30.708 75.779 30.168C74.591 29.628 73.682 28.845 73.052 27.819C72.422 26.793 72.107 25.569 72.107 24.147C72.107 22.671 72.44 21.411 73.106 20.367C73.79 19.305 74.744 18.495 75.968 17.937C77.192 17.379 78.632 17.1 80.288 17.1H88.442V36H84.122ZM72.161 36L76.859 29.223H81.287L76.778 36H72.161ZM84.122 28.629V19.53L85.202 20.664H80.396C79.154 20.664 78.2 20.952 77.534 21.528C76.886 22.104 76.562 22.959 76.562 24.093C76.562 25.191 76.877 26.037 77.507 26.631C78.137 27.225 79.064 27.522 80.288 27.522H85.202L84.122 28.629ZM92.8531 36V21.474H97.0381V27.144H103.356V21.474H107.568V36H103.356V30.573H97.0381V36H92.8531ZM113.571 41.454C112.815 41.454 112.068 41.337 111.33 41.103C110.592 40.869 109.989 40.545 109.521 40.131L111.06 37.134C111.384 37.422 111.753 37.647 112.167 37.809C112.599 37.971 113.022 38.052 113.436 38.052C114.03 38.052 114.498 37.908 114.84 37.62C115.2 37.35 115.524 36.891 115.812 36.243L116.568 34.461L116.892 34.002L122.103 21.474H126.153L119.592 36.891C119.124 38.061 118.584 38.979 117.972 39.645C117.378 40.311 116.712 40.779 115.974 41.049C115.254 41.319 114.453 41.454 113.571 41.454ZM116.055 36.567L109.575 21.474H113.922L118.944 33.624L116.055 36.567ZM138.094 32.544L137.176 33.516V21.474H141.388V33.516L140.416 32.544H147.112L146.167 33.516V21.474H150.352V36H128.185V21.474H132.37V33.516L131.425 32.544H138.094ZM164.681 36L159.821 29.115L163.25 27.09L169.649 36H164.681ZM154.394 36V21.474H158.606V36H154.394ZM157.364 30.492V27.117H162.44V30.492H157.364ZM163.655 29.223L159.713 28.791L164.816 21.474H169.298L163.655 29.223ZM180.148 36V33.165L179.878 32.544V27.468C179.878 26.568 179.599 25.866 179.041 25.362C178.501 24.858 177.664 24.606 176.53 24.606C175.756 24.606 174.991 24.732 174.235 24.984C173.497 25.218 172.867 25.542 172.345 25.956L170.833 23.013C171.625 22.455 172.579 22.023 173.695 21.717C174.811 21.411 175.945 21.258 177.097 21.258C179.311 21.258 181.03 21.78 182.254 22.824C183.478 23.868 184.09 25.497 184.09 27.711V36H180.148ZM175.72 36.216C174.586 36.216 173.614 36.027 172.804 35.649C171.994 35.253 171.373 34.722 170.941 34.056C170.509 33.39 170.293 32.643 170.293 31.815C170.293 30.951 170.5 30.195 170.914 29.547C171.346 28.899 172.021 28.395 172.939 28.035C173.857 27.657 175.054 27.468 176.53 27.468H180.391V29.925H176.989C175.999 29.925 175.315 30.087 174.937 30.411C174.577 30.735 174.397 31.14 174.397 31.626C174.397 32.166 174.604 32.598 175.018 32.922C175.45 33.228 176.035 33.381 176.773 33.381C177.475 33.381 178.105 33.219 178.663 32.895C179.221 32.553 179.626 32.058 179.878 31.41L180.526 33.354C180.22 34.29 179.662 35.001 178.852 35.487C178.042 35.973 176.998 36.216 175.72 36.216ZM185.805 36L192.312 27.468L192.231 29.79L185.994 21.474H190.719L194.661 26.901L192.879 26.955L196.956 21.474H201.438L195.174 29.709V27.441L201.654 36H196.875L192.744 30.222L194.499 30.465L190.395 36H185.805Z" fill="white"/>
<g clip-path="url(#clip0_14_215)">
<path d="M2.67721 28.1092L-0.0294189 24.9497L29.46 0.0205078L58.9706 24.9497L56.264 28.1092L29.4611 5.47257L2.67814 28.1092" fill="white"/>
<path d="M6.83765 28.7319V53.0384H52.0827V28.7319L47.9219 25.2108V48.8923H11.02V25.2108L6.83858 28.7319" fill="white"/>
<path d="M21.262 41V22.8H29.738C31.8527 22.8 33.4993 23.2073 34.678 24.022C35.8567 24.8367 36.446 25.998 36.446 27.506C36.446 28.9967 35.8913 30.158 34.782 30.99C33.6727 31.8047 32.1993 32.212 30.362 32.212L30.856 31.12C32.9013 31.12 34.4873 31.5273 35.614 32.342C36.7407 33.1567 37.304 34.3353 37.304 35.878C37.304 37.4727 36.6973 38.7293 35.484 39.648C34.288 40.5493 32.5373 41 30.232 41H21.262ZM25.448 37.88H30.076C31.0467 37.88 31.7833 37.6893 32.286 37.308C32.7887 36.9267 33.04 36.3373 33.04 35.54C33.04 34.7773 32.7887 34.214 32.286 33.85C31.7833 33.4687 31.0467 33.278 30.076 33.278H25.448V37.88ZM25.448 30.34H29.374C30.2927 30.34 30.986 30.158 31.454 29.794C31.922 29.4127 32.156 28.858 32.156 28.13C32.156 27.402 31.922 26.856 31.454 26.492C30.986 26.1107 30.2927 25.92 29.374 25.92H25.448V30.34Z" fill="white"/>
</g>
<defs>
<clipPath id="clip0_14_215">
<rect width="59" height="53" fill="white"/>
</clipPath>
</defs>
</svg>
