<svg width="32" height="32" viewBox="0 0 32 32" fill="none" xmlns="http://www.w3.org/2000/svg">
<g clip-path="url(#clip0_105_383)">
<path d="M27.2641 12.0041C28.375 10.8222 29.185 9.80894 29.7205 8.82562C30.2954 7.7689 30.5613 6.71911 30.5613 5.47617C30.5613 4.41806 30.1925 3.46038 29.5975 2.76806C29.0002 2.07779 28.1751 1.64944 27.2641 1.64944C26.3517 1.64944 25.5268 2.0769 24.9325 2.76717C24.3365 3.46176 23.9675 4.41887 23.9675 5.47617C23.9675 6.71911 24.2334 7.7689 24.8083 8.82562C25.3442 9.80924 26.1537 10.8222 27.2641 12.0041ZM7.65651 31.983C7.2639 31.983 6.94521 31.6131 6.94521 31.1575C6.94521 30.7018 7.26391 30.3319 7.65651 30.3319H14.8514C15.308 30.3319 15.7232 30.1152 16.0231 29.7671C16.3229 29.4191 16.5097 28.9375 16.5097 28.4079V22.4183C16.5097 21.4342 16.8561 20.5389 17.4139 19.8915C17.9717 19.2441 18.7431 18.842 19.591 18.842H24.8951C25.3517 18.842 25.7664 18.6253 26.0662 18.2773C26.366 17.9292 26.5528 17.4471 26.5528 16.9175V16.2537C26.5528 15.798 26.8715 15.4281 27.2641 15.4281C27.6567 15.4281 27.9754 15.798 27.9754 16.2537V16.9175C27.9754 17.9016 27.6289 18.7969 27.0711 19.4442C26.5133 20.0916 25.7425 20.4937 24.8946 20.4937H19.5905C19.1339 20.4937 18.7187 20.7105 18.4189 21.0585C18.119 21.4065 17.9323 21.8887 17.9323 22.4183V28.4079C17.9323 29.3921 17.5858 30.2867 17.028 30.9341C16.4702 31.5815 15.6989 31.9836 14.8509 31.9836H7.65601L7.65651 31.983ZM2.49905 14.4757C2.49905 12.7017 3.11934 11.0937 4.12134 9.93075C5.12334 8.76785 6.50826 8.04789 8.03651 8.04789C9.56502 8.04789 10.9502 8.76838 11.9522 9.93134C12.9542 11.0943 13.575 12.7017 13.575 14.476C13.575 16.2497 12.9542 17.8571 11.9522 19.02C10.9502 20.1829 9.56477 20.9035 8.03651 20.9035C6.50997 20.9035 5.12578 20.183 4.12381 19.0206C3.11937 17.8577 2.49905 16.2497 2.49905 14.476V14.4757ZM5.1268 11.0974C4.38273 11.961 3.92191 13.1562 3.92191 14.4757C3.92191 15.7946 4.38247 16.9898 5.1268 17.8533C5.86959 18.7169 6.89937 19.2518 8.03651 19.2518C9.17289 19.2518 10.2027 18.7166 10.9467 17.8528C11.6908 16.9892 12.1521 15.7944 12.1521 14.4757C12.1521 13.1562 11.691 11.9617 10.9467 11.0981C10.2027 10.2345 9.17315 9.69914 8.03651 9.69914C6.90013 9.69914 5.87086 10.2337 5.1268 11.0976V11.0974ZM7.94845 26.9121C10.1942 24.5581 11.8163 22.5649 12.879 20.6119C13.9817 18.5863 14.4911 16.5761 14.4911 14.1948C14.4911 12.0955 13.7595 10.1962 12.5779 8.82518C11.3919 7.45152 9.75575 6.6015 7.94845 6.6015C6.14191 6.6015 4.50572 7.45152 3.32223 8.82518C2.09899 10.1554 1.4068 12.2687 1.4068 14.1948C1.4068 16.5756 1.91622 18.5857 3.01867 20.6119C4.08166 22.5649 5.70292 24.5578 7.94851 26.9121H7.94845ZM14.0794 21.4892C12.8594 23.7313 11.0079 25.9665 8.42756 28.6283C8.16268 28.9104 7.75048 28.9193 7.47594 28.6355C4.89334 25.9708 3.03969 23.7331 1.81848 21.4892C0.56375 19.1832 -0.0158691 16.8982 -0.0158691 14.1947C-0.0158691 11.6671 0.860638 9.37437 2.2795 7.70484C3.68299 5.94777 5.90273 4.95007 7.94839 4.95007C10.1478 4.95007 12.1391 5.98491 13.5808 7.65819C15.0218 9.33376 15.9142 11.6455 15.9142 14.1947C15.9142 16.8983 15.3343 19.1844 14.0794 21.4892V21.4892ZM24.934 5.56033C24.934 4.7843 25.2053 4.08048 25.6441 3.57128C26.0828 3.06207 26.689 2.74713 27.3573 2.74713C28.026 2.74713 28.6324 3.06204 29.0711 3.57128C29.5098 4.08053 29.7812 4.7843 29.7812 5.56033C29.7812 6.33636 29.5099 7.03959 29.0711 7.54879C28.6326 8.05771 28.026 8.37345 27.3573 8.37345C26.6887 8.37345 26.0828 8.05855 25.6441 7.5493C25.2053 7.04009 24.934 6.33629 24.934 5.56026V5.56033ZM26.6495 4.73824C26.469 4.9478 26.3569 5.23939 26.3569 5.56033C26.3569 5.88157 26.469 6.17288 26.6495 6.38242C26.8301 6.59196 27.0808 6.72209 27.3576 6.72209C27.6344 6.72209 27.8854 6.5914 28.0659 6.38184C28.2465 6.17228 28.3586 5.88126 28.3586 5.56005C28.3586 5.23883 28.2465 4.9475 28.0659 4.73796C27.8854 4.52842 27.6341 4.39829 27.3576 4.39829C27.0808 4.39829 26.8301 4.5284 26.6495 4.73796V4.73824ZM30.9208 9.70283C30.2279 10.9755 29.1872 12.2339 27.7435 13.7238C27.4781 14.0056 27.0664 14.0143 26.7919 13.7307C25.3447 12.2379 24.3023 10.9774 23.6083 9.70281C22.8809 8.36629 22.5451 7.04163 22.5451 5.47601C22.5451 3.96418 23.0739 2.59406 23.9275 1.60322C24.7841 0.612451 25.9642 -0.00183105 27.2643 -0.00183105C28.5669 -0.00183105 29.7479 0.611869 30.6016 1.60263C31.4552 2.59686 31.984 3.96617 31.984 5.47593C31.984 7.04156 31.6479 8.36629 30.9208 9.70274L30.9208 9.70283Z" fill="black"/>
</g>
<defs>
<clipPath id="clip0_105_383">
<rect width="32" height="32" fill="white"/>
</clipPath>
</defs>
</svg>
