<svg width="32" height="32" viewBox="0 0 32 32" fill="none" xmlns="http://www.w3.org/2000/svg">
<g clip-path="url(#clip0_89_217)">
<path d="M25.2421 32.019H24.8575L24.4729 31.9765C18.1041 31.5926 12.1201 28.8619 7.58937 24.3818C3.01572 19.7738 0.280168 13.6298 -0.019186 7.14448C-0.104756 5.39507 0.579201 3.68856 1.77602 2.451L3.95584 0.275072C4.29782 -0.0662999 4.81062 -0.0662999 5.15264 0.275072L12.0769 7.187C12.2478 7.35753 12.3333 7.57093 12.3333 7.78431C12.3333 7.9977 12.2478 8.2111 12.0769 8.38163L8.82854 11.6242C8.6577 11.7948 8.61476 12.0082 8.6577 12.2215L8.7859 12.6483C9.42692 15.123 10.7093 17.3418 12.5045 19.1337C14.3852 21.0111 16.7788 22.3337 19.3861 22.9311C19.5999 22.9736 19.8136 22.9311 19.9418 22.7605L23.2331 19.4751C23.5751 19.1338 24.0879 19.1338 24.4299 19.4751L31.7391 26.7713C31.91 26.9418 31.9955 27.1552 31.9955 27.3686C31.9955 27.582 31.91 27.7954 31.7391 27.9659L29.602 30.0992C28.4905 31.3793 26.9091 32.0192 25.2421 32.0192L25.2421 32.019ZM4.59723 2.06704L3.01581 3.64594C2.11806 4.54209 1.64788 5.77927 1.69085 7.05935C1.9902 13.1605 4.51197 18.878 8.82893 23.1873C13.0606 27.4114 18.6598 29.9287 24.6011 30.3127L24.9857 30.3552C26.2681 30.4407 27.5505 29.9713 28.4478 29.0326L29.9866 27.4966L23.8742 21.3526L21.1813 24.0406C20.6255 24.5954 19.8134 24.8514 19.0441 24.638C16.1378 23.9552 13.4449 22.5046 11.3504 20.3713C9.34148 18.366 7.88829 15.8487 7.16166 13.118L7.03345 12.6913C6.81968 11.9234 7.07609 11.0698 7.63184 10.4725L10.2818 7.82725L4.59723 2.06704Z" fill="#030303"/>
</g>
<defs>
<clipPath id="clip0_89_217">
<rect width="32" height="32" fill="white"/>
</clipPath>
</defs>
</svg>
