<svg width="48" height="48" viewBox="0 0 48 48" fill="none" xmlns="http://www.w3.org/2000/svg">
<g clip-path="url(#clip0_7_34)">
<path d="M7.11748 32.445L6.71357 31.0813C6.48769 30.3221 6.521 29.5097 6.80775 28.7716C7.09451 28.0331 7.61862 27.4113 8.2974 27.0036L9.43293 22.1058V20.3745C9.09257 19.6119 8.93408 18.7807 8.97084 17.9466C8.97849 17.8723 8.9961 17.7995 9.0229 17.7299L8.9827 17.7222L9.44748 15.1854L11.1335 15.4959L10.8349 17.1269H21.02L21.4599 15.1545C21.5552 14.7272 21.9569 14.4405 22.3918 14.4891C22.8267 14.5373 23.1556 14.9056 23.1544 15.3432V22.1747L25.5556 32.5637H28.9002C28.7126 32.2854 28.4377 32.0775 28.1188 31.9718L27.1797 31.6633H27.18C26.8864 31.5668 26.6674 31.3195 26.6069 31.0166L24.8918 22.4408C24.8787 22.3857 24.8715 22.3294 24.8696 22.2728V15.4121C24.8696 14.7299 24.5985 14.0752 24.1161 13.5929C23.6337 13.1106 22.979 12.8394 22.2969 12.8394H18.0346C17.5637 12.8394 17.1809 12.4596 17.1771 11.9887L17.1617 10.0822C16.5963 10.2315 16.0017 10.2315 15.4363 10.0822V11.9819C15.4363 12.2093 15.3459 12.4275 15.1851 12.5883C15.0243 12.7491 14.8061 12.8394 14.5787 12.8394H10.4796C9.77246 12.8161 9.0852 13.0737 8.56761 13.5558C8.05001 14.0378 7.74449 14.7054 7.71807 15.4121V22.2728C7.71807 22.3321 7.71194 22.3915 7.70008 22.4493L5.88955 31.0251C5.82562 31.3295 5.60242 31.5752 5.30571 31.6675L4.31112 31.9761L4.31073 31.9765C3.97957 32.0791 3.68976 32.2847 3.4834 32.5638H7.09131L7.11748 32.445Z" fill="#CFB594"/>
<path d="M15.1993 8.14846C15.5247 8.36095 15.9053 8.47388 16.2943 8.47388C16.6833 8.47388 17.0638 8.36095 17.3892 8.14846C18.313 7.53438 18.8678 6.49799 18.867 5.38891V3.71472L13.7368 5.6359C13.8099 6.65431 14.3494 7.58187 15.1993 8.14856V8.14846Z" fill="#CFB594"/>
<path d="M11.4701 26.7849C12.0302 27.0345 12.5064 27.4404 12.8422 27.9538C13.4417 27.0809 14.4333 26.5598 15.4923 26.561C16.3008 26.5602 17.0895 26.814 17.7465 27.2861C18.4034 27.7578 18.8954 28.4243 19.1531 29.1912L20.268 32.504C20.8311 32.3891 21.3384 32.0867 21.7071 31.6456C22.0758 31.2046 22.2837 30.6517 22.2971 30.0771C22.312 28.519 21.8963 26.9868 21.0965 25.6494L20.1995 24.1598C19.8561 23.5947 19.7454 22.9182 19.8909 22.2731L20.6531 18.8428H10.7366C10.7955 19.1835 10.9039 19.5136 11.0582 19.8229C11.2393 20.1889 11.4766 20.5243 11.7622 20.816C11.8231 20.8796 11.8744 20.9515 11.915 21.0297L12.4295 22.0503C12.7603 22.7081 12.7932 23.4761 12.5203 24.1598L11.4701 26.7849Z" fill="#CFB594"/>
<path d="M18.4855 2.00536C18.2723 1.65544 17.9782 1.36141 17.6279 1.14778C17.5816 1.12021 17.5326 1.09533 17.4847 1.07044C17.3523 1.00115 17.2137 0.943717 17.0705 0.898927C17.0158 0.881699 16.9625 0.861024 16.9066 0.847625H16.907C16.1402 0.648548 15.3247 0.817762 14.7002 1.30513C14.0758 1.7925 13.7141 2.5425 13.7209 3.33461V3.8124L18.4943 2.02178L18.4855 2.00536Z" fill="#CFB594"/>
<path d="M36.876 31.3512V29.9909H35.5157L34.3032 31.2034V32.5636H35.6635L36.876 31.3512Z" fill="#CFB594"/>
<path d="M45.4518 28.2756V27.773L44.2393 26.5605H42.5513L42.2075 27.2492L43.234 28.2757L45.4518 28.2756Z" fill="#CFB594"/>
<path d="M41.796 30.918L42.3845 32.5638H43.7367V31.7062C43.7367 31.4788 43.827 31.2606 43.9878 31.0998L44.5943 30.4938V29.9911H42.2907L41.9526 30.617H41.953C41.9434 30.6412 41.9323 30.6645 41.9205 30.6875L41.796 30.918Z" fill="#CFB594"/>
<path d="M40.2376 27.4837L39.7763 26.5603H37.4057L36.9443 27.483L37.2104 28.2755H39.9742L40.2376 27.4837Z" fill="#CFB594"/>
<path d="M40.564 32.5635L40.0545 31.1366C39.9733 30.9084 39.9921 30.6569 40.1061 30.4437L40.2107 30.2492L39.9534 29.9919L38.5916 29.9915V31.3518L39.804 32.5635L40.564 32.5635Z" fill="#CFB594"/>
<path d="M12.0061 1.69065C12.1386 1.68797 12.2684 1.65389 12.3851 1.59111C12.513 1.3101 12.6711 1.04364 12.8568 0.797078C12.8423 0.453282 12.6237 0.151217 12.3017 0.0302349C11.9793 -0.0907476 11.616 -0.00728417 11.379 0.241954C11.1416 0.491192 11.0762 0.857962 11.2129 1.17381C11.3499 1.48966 11.6619 1.69295 12.0061 1.69065V1.69065Z" fill="#CFB594"/>
<path d="M24.8699 34.2787H20.8657L21.4438 35.9938H32.5884V34.2787H24.8699Z" fill="#CFB594"/>
<path d="M44.5942 34.2787H34.3032V48H48.0245V37.709H36.0184V35.9938H48.0245V34.2787H44.5942ZM37.7335 46.2848H36.0184V42.8545H37.7335V46.2848ZM37.7335 39.4242V41.1393H36.0184V39.4242H37.7335Z" fill="#CFB594"/>
<path d="M47.4943 30.8484H46.6639L45.4514 32.0609V32.5635H48.0242V31.9085L47.4943 30.8484Z" fill="#CFB594"/>
<path d="M30.8729 37.709H32.5881V48H30.8729V37.709Z" fill="#CFB594"/>
<path d="M14.8837 44.6775L11.6026 29.3341C11.5211 29.0099 11.3335 28.7223 11.0689 28.5171C10.8047 28.3123 10.4793 28.2021 10.1447 28.204C9.55819 28.2044 9.00653 28.4812 8.65546 28.9509C8.30478 29.4207 8.19566 30.0282 8.36182 30.5906L13.5073 47.9343L16.5311 47.9764L14.9575 44.8865C14.9239 44.8203 14.899 44.7498 14.8837 44.6771V44.6775Z" fill="#CFB594"/>
<path d="M2.34139 34.2787H0.000244141V35.9938H8.17372L7.6653 34.2787H2.34139Z" fill="#CFB594"/>
<path d="M0 37.709H1.71516V48H0V37.709Z" fill="#CFB594"/>
<path d="M14.7543 35.8753L14.7799 35.9936H14.8083L14.7543 35.8753Z" fill="#CFB594"/>
<path d="M15.4923 28.2756C14.9942 28.276 14.5286 28.523 14.2491 28.9349C13.9696 29.3472 13.9126 29.871 14.0968 30.3338L20.5037 44.2805C20.5309 44.3402 20.5512 44.403 20.5638 44.4673L21.2824 47.9999H23.676L17.5279 29.7388C17.3851 29.3123 17.1117 28.9413 16.7461 28.6787C16.3809 28.4165 15.9421 28.2752 15.4923 28.276L15.4923 28.2756Z" fill="#CFB594"/>
<path d="M35.6754 16.7449C35.2879 17.5266 35.2879 18.4447 35.6754 19.2268C35.8247 19.5251 35.8247 19.8765 35.6754 20.1752C35.2879 20.9566 35.2879 21.8746 35.6754 22.656L36.1042 23.5135L37.6394 22.7467L37.2106 21.8891V21.8895C37.062 21.5905 37.062 21.2398 37.2106 20.9408C37.5988 20.1594 37.5988 19.2405 37.2106 18.4592C37.062 18.1602 37.062 17.8095 37.2106 17.5105C37.5988 16.7287 37.5988 15.8099 37.2106 15.0277L36.7818 14.1702L35.2466 14.937L35.6754 15.7946C35.8251 16.0936 35.8251 16.4458 35.6754 16.7448V16.7449Z" fill="#CFB594"/>
<path d="M39.9671 16.7449C39.5797 17.5263 39.5797 18.4436 39.9671 19.225C40.1157 19.5244 40.1157 19.8758 39.9671 20.1752C39.5797 20.9566 39.5797 21.8747 39.9671 22.656L40.3959 23.5136L41.9311 22.7468L41.5023 21.8892V21.8896C41.3538 21.5902 41.3538 21.2387 41.5023 20.9393C41.8898 20.1579 41.8898 19.2402 41.5023 18.4592C41.3538 18.1598 41.3538 17.8084 41.5023 17.509C41.8898 16.7272 41.8898 15.8095 41.5023 15.0278L41.0735 14.1702L39.5383 14.937L39.9671 15.7946C40.1157 16.094 40.1157 16.4455 39.9671 16.7448V16.7449Z" fill="#CFB594"/>
<path d="M44.2551 16.7449C43.8676 17.5263 43.8676 18.4436 44.2551 19.225C44.4036 19.5244 44.4036 19.8758 44.2551 20.1752C43.8676 20.9566 43.8676 21.8747 44.2551 22.656L44.6839 23.5136L46.2191 22.7468L45.7903 21.8892V21.8896C45.6418 21.5902 45.6418 21.2387 45.7903 20.9393C46.1777 20.1579 46.1777 19.2402 45.7903 18.4592C45.6418 18.1598 45.6418 17.8084 45.7903 17.509C46.1777 16.7272 46.1777 15.8095 45.7903 15.0278L45.3615 14.1702L43.8263 14.937L44.2551 15.7946C44.4036 16.094 44.4036 16.4455 44.2551 16.7448V16.7449Z" fill="#CFB594"/>
</g>
<defs>
<clipPath id="clip0_7_34">
<rect width="48" height="48" fill="white"/>
</clipPath>
</defs>
</svg>
