<svg width="48" height="48" viewBox="0 0 48 48" fill="none" xmlns="http://www.w3.org/2000/svg">
<path d="M36.9883 16.6959V27.546C36.9877 28.0341 37.1063 28.5151 37.3345 28.9507H22.5559L36.8135 15.2306C36.9299 15.7111 36.9888 16.2029 36.9885 16.6959H36.9883ZM39.867 30.6393L39.8282 30.6343H20.806L13.4108 37.7521H39.6142C40.2383 37.7511 40.8364 37.5119 41.2775 37.087C41.7185 36.6621 41.9665 36.0863 41.9668 35.4857V32.891C41.9673 32.3324 41.7532 31.7937 41.3657 31.3779C40.9782 30.9622 40.4448 30.6992 39.8679 30.6394L39.867 30.6393ZM23.9832 41.9728C24.7318 41.9717 25.4561 41.7169 26.0286 41.2528C26.6011 40.7887 26.9853 40.1453 27.114 39.4355H20.8546C20.9827 40.145 21.3666 40.7884 21.9389 41.2523C22.5111 41.7163 23.2348 41.9715 23.9832 41.9728ZM41.4049 8.42895C41.7354 8.0986 41.7305 7.57397 41.3932 7.2496C41.0562 6.92526 40.5111 6.9203 40.1678 7.23837L35.0478 12.1659C33.7931 10.9432 32.0814 10.2556 30.2957 10.2566H27.1611V9.09112C27.1706 8.27452 26.8401 7.488 26.2432 6.90745C25.6465 6.32667 24.833 6 23.9844 6C23.1357 6 22.3222 6.32669 21.7255 6.90745C21.1288 7.48797 20.798 8.27452 20.8075 9.09112V10.255H17.6735C15.8991 10.2571 14.1984 10.9361 12.9436 12.1431C11.6889 13.3501 10.9831 14.9869 10.9804 16.6942V27.5464C10.9812 28.0345 10.8624 28.5157 10.6339 28.9511H17.604L15.8535 30.6357L8.13741 30.636C8.12411 30.636 8.11136 30.6396 8.09861 30.6409V30.6407C7.522 30.7007 6.98877 30.9637 6.6013 31.3792C6.21409 31.7944 5.99972 32.3329 6 32.8912V35.4859C6.00054 36.0867 6.24909 36.6628 6.69058 37.0877C7.13206 37.5126 7.73067 37.7515 8.35502 37.7523H8.46002L6.56385 39.5766C6.23335 39.907 6.23851 40.4316 6.57552 40.756C6.91253 41.0803 7.45765 41.0853 7.80094 40.7672L41.4049 8.42895Z" fill="#D6B397"/>
</svg>
