<svg width="32" height="32" viewBox="0 0 32 32" fill="none" xmlns="http://www.w3.org/2000/svg">
<g clip-path="url(#clip0_217_44)">
<path d="M9.29468 2.53955H12.3929V3.55542H9.29468V2.53955Z" fill="#E6DBCA"/>
<path d="M7.22925 2.53955H8.26198V3.55542H7.22925V2.53955Z" fill="#E6DBCA"/>
<path d="M4.4338 26.9204H4.13112C3.56151 26.9204 3.09839 27.376 3.09839 27.9363V28.9522C3.09839 29.5125 3.56151 29.968 4.13112 29.968H4.4338C4.7095 29.968 4.96884 29.8624 5.16385 29.6703L6.41027 28.4442L5.16385 27.2182C4.9686 27.0261 4.7095 26.9204 4.4338 26.9204V26.9204ZM4.4338 28.9522H4.13112V27.9363H4.4338L4.95016 28.4442L4.4338 28.9522Z" fill="#E6DBCA"/>
<path d="M10.3274 26.9204H9.2947C8.72508 26.9204 8.26196 27.376 8.26196 27.9363V28.9522C8.26196 29.5125 8.72508 29.968 9.2947 29.968H10.3274C10.897 29.968 11.3602 29.5125 11.3602 28.9522V27.9363C11.3602 27.376 10.897 26.9204 10.3274 26.9204ZM9.2947 28.9522V27.9363H10.3274L10.3279 28.9522H9.2947Z" fill="#E6DBCA"/>
<path d="M15.4911 26.9204H15.1884C14.9127 26.9204 14.6534 27.0261 14.4583 27.2182L13.2119 28.4442L14.4583 29.6703C14.6536 29.8624 14.9127 29.968 15.1884 29.968H15.4911C16.0607 29.968 16.5238 29.5125 16.5238 28.9522V27.9363C16.5238 27.376 16.0607 26.9204 15.4911 26.9204V26.9204ZM15.1884 28.9522L14.672 28.4442L15.1884 27.9363H15.4911L15.4915 28.9522H15.1884Z" fill="#E6DBCA"/>
<path d="M30.618 3.04751C30.4564 3.04751 30.2973 3.07494 30.1482 3.12778L19.6219 6.82596V3.0475C19.6219 1.64704 18.4638 0.507812 17.0401 0.507812H2.58183C1.15814 0.507812 0 1.64704 0 3.0475V29.4602C0 30.8606 1.15814 31.9999 2.58183 31.9999H17.0401C18.4638 31.9999 19.6219 30.8606 19.6219 29.4602V24.0831L19.9972 23.7139L22.0698 25.957C22.3379 26.2466 22.7202 26.4126 23.1183 26.4126C23.7158 26.4126 24.2517 26.0407 24.4521 25.4876L31.9338 4.88224C31.9875 4.73348 32.015 4.57838 32.015 4.42147C32.015 3.66409 31.3886 3.04754 30.6182 3.04754L30.618 3.04751ZM18.5893 29.4602C18.5893 30.3004 17.8943 30.984 17.0402 30.984H2.58189C1.72779 30.984 1.03279 30.3004 1.03279 29.4602V3.04751C1.03279 2.20735 1.72779 1.5237 2.58189 1.5237H17.0402C17.8943 1.5237 18.5893 2.20735 18.5893 3.04751V7.18879L17.5565 7.55137V4.57132H2.06552V25.9047H17.0402V25.9042C17.5054 25.9033 17.9609 25.7178 18.2894 25.3942L18.5893 25.099V29.4602ZM8.67738 12.8092L13.983 18.0282L15.2997 24.5037C15.3276 24.6397 15.3763 24.7667 15.4334 24.8887H3.09847V5.58712H16.524V7.91388L9.20222 10.486C8.63929 10.6837 8.2619 11.2109 8.2619 11.823C8.2619 12.196 8.40897 12.5454 8.67707 12.8089L8.67738 12.8092ZM18.0729 24.1701V21.6309L19.3018 22.9606L18.0729 24.1701ZM17.0402 20.1393V24.8884C17.0392 24.8884 17.0376 24.8889 17.0365 24.8889C16.6854 24.8889 16.3807 24.6435 16.312 24.3048L15.0243 17.971L24.909 9.7064C25.0522 9.58803 25.3021 9.6962 25.3021 9.89846C25.3021 9.9513 25.2834 10.0037 25.25 10.0447L17.0402 20.1393ZM30.9608 4.54183L23.4797 25.1466C23.3893 25.3961 23.015 25.4691 22.8342 25.2736L18.2348 20.2968L26.0559 10.6802C26.2357 10.4594 26.3348 10.182 26.3348 9.88634C26.3348 9.19606 25.7647 8.6353 25.0635 8.6353C24.762 8.6353 24.4692 8.74142 24.2398 8.93349L14.4867 17.0878L9.4067 12.0912C9.33432 12.0195 9.29467 11.925 9.29467 11.7991C9.29467 11.6402 9.39702 11.4968 9.54986 11.4436L30.4972 4.08399C30.7181 4.00667 30.982 4.18285 30.982 4.42163C30.982 4.4629 30.9749 4.50349 30.9608 4.54204L30.9608 4.54183Z" fill="#E6DBCA"/>
<path d="M7.22931 6.60303H4.1311V9.65065H7.22931V6.60303ZM6.19657 8.63477H5.16384V7.6189H6.19657V8.63477Z" fill="#E6DBCA"/>
<path d="M7.22931 10.6665H4.1311V13.7141H7.22931V10.6665ZM6.19657 12.6982H5.16384V11.6824H6.19657V12.6982Z" fill="#E6DBCA"/>
<path d="M7.22931 14.73H4.1311V17.7776H7.22931V14.73ZM6.19657 16.7617H5.16384V15.7459H6.19657V16.7617Z" fill="#E6DBCA"/>
<path d="M7.22931 18.7935H4.1311V21.8411H7.22931V18.7935ZM6.19657 20.8252H5.16384V19.8093H6.19657V20.8252Z" fill="#E6DBCA"/>
<path d="M8.26196 21.8411H11.3602V18.7935H8.26196V21.8411ZM9.2947 19.8093H10.3274V20.8252H9.2947V19.8093Z" fill="#E6DBCA"/>
<path d="M4.1311 22.8569H13.9421V23.8728H4.1311V22.8569Z" fill="#E6DBCA"/>
</g>
<defs>
<clipPath id="clip0_217_44">
<rect width="32" height="32" fill="white"/>
</clipPath>
</defs>
</svg>
