<svg width="32" height="32" viewBox="0 0 32 32" fill="none" xmlns="http://www.w3.org/2000/svg">
<g clip-path="url(#clip0_89_294)">
<path d="M9.29468 2.53967H12.3929V3.55555H9.29468V2.53967Z" fill="black"/>
<path d="M7.22925 2.53967H8.26198V3.55555H7.22925V2.53967Z" fill="black"/>
<path d="M4.4338 26.9207H4.13112C3.56151 26.9207 3.09839 27.3762 3.09839 27.9365V28.9524C3.09839 29.5127 3.56151 29.9683 4.13112 29.9683H4.4338C4.7095 29.9683 4.96884 29.8626 5.16385 29.6705L6.41027 28.4445L5.16385 27.2184C4.9686 27.0263 4.7095 26.9207 4.4338 26.9207V26.9207ZM4.4338 28.9524H4.13112V27.9365H4.4338L4.95016 28.4445L4.4338 28.9524Z" fill="black"/>
<path d="M10.3274 26.9207H9.2947C8.72508 26.9207 8.26196 27.3762 8.26196 27.9365V28.9524C8.26196 29.5127 8.72508 29.9683 9.2947 29.9683H10.3274C10.897 29.9683 11.3602 29.5127 11.3602 28.9524V27.9365C11.3602 27.3762 10.897 26.9207 10.3274 26.9207ZM9.2947 28.9524V27.9365H10.3274L10.3279 28.9524H9.2947Z" fill="black"/>
<path d="M15.4911 26.9207H15.1884C14.9127 26.9207 14.6534 27.0263 14.4583 27.2184L13.2119 28.4445L14.4583 29.6705C14.6536 29.8626 14.9127 29.9683 15.1884 29.9683H15.4911C16.0607 29.9683 16.5238 29.5127 16.5238 28.9524V27.9365C16.5238 27.3762 16.0607 26.9207 15.4911 26.9207V26.9207ZM15.1884 28.9524L14.672 28.4445L15.1884 27.9365H15.4911L15.4915 28.9524H15.1884Z" fill="black"/>
<path d="M30.618 3.04763C30.4564 3.04763 30.2973 3.07507 30.1482 3.1279L19.6219 6.82608V3.04762C19.6219 1.64716 18.4638 0.507935 17.0401 0.507935H2.58183C1.15814 0.507935 0 1.64716 0 3.04762V29.4603C0 30.8608 1.15814 32 2.58183 32H17.0401C18.4638 32 19.6219 30.8608 19.6219 29.4603V24.0832L19.9972 23.7141L22.0698 25.9572C22.3379 26.2467 22.7202 26.4127 23.1183 26.4127C23.7158 26.4127 24.2517 26.0408 24.4521 25.4877L31.9338 4.88236C31.9875 4.73361 32.015 4.5785 32.015 4.42159C32.015 3.66421 31.3886 3.04766 30.6182 3.04766L30.618 3.04763ZM18.5893 29.4603C18.5893 30.3005 17.8943 30.9841 17.0402 30.9841H2.58189C1.72779 30.9841 1.03279 30.3005 1.03279 29.4603V3.04763C1.03279 2.20747 1.72779 1.52382 2.58189 1.52382H17.0402C17.8943 1.52382 18.5893 2.20747 18.5893 3.04763V7.18891L17.5565 7.55149V4.57144H2.06552V25.9048H17.0402V25.9043C17.5054 25.9034 17.9609 25.7179 18.2894 25.3943L18.5893 25.0991V29.4603ZM8.67738 12.8093L13.983 18.0283L15.2997 24.5038C15.3276 24.6399 15.3763 24.7668 15.4334 24.8888H3.09847V5.58724H16.524V7.914L9.20222 10.4861C8.63929 10.6839 8.2619 11.2111 8.2619 11.8231C8.2619 12.1961 8.40897 12.5455 8.67707 12.809L8.67738 12.8093ZM18.0729 24.1702V21.631L19.3018 22.9607L18.0729 24.1702ZM17.0402 20.1394V24.8886C17.0392 24.8886 17.0376 24.889 17.0365 24.889C16.6854 24.889 16.3807 24.6437 16.312 24.3049L15.0243 17.9711L24.909 9.70652C25.0522 9.58815 25.3021 9.69632 25.3021 9.89859C25.3021 9.95142 25.2834 10.0038 25.25 10.0448L17.0402 20.1394ZM30.9608 4.54195L23.4797 25.1468C23.3893 25.3962 23.015 25.4692 22.8342 25.2737L18.2348 20.2969L26.0559 10.6803C26.2357 10.4595 26.3348 10.1822 26.3348 9.88646C26.3348 9.19619 25.7647 8.63542 25.0635 8.63542C24.762 8.63542 24.4692 8.74155 24.2398 8.93361L14.4867 17.0879L9.4067 12.0913C9.33432 12.0196 9.29467 11.9251 9.29467 11.7992C9.29467 11.6403 9.39702 11.497 9.54986 11.4437L30.4972 4.08411C30.7181 4.00679 30.982 4.18297 30.982 4.42175C30.982 4.46302 30.9749 4.50361 30.9608 4.54216L30.9608 4.54195Z" fill="black"/>
<path d="M7.22931 6.60315H4.1311V9.65077H7.22931V6.60315ZM6.19657 8.6349H5.16384V7.61902H6.19657V8.6349Z" fill="black"/>
<path d="M7.22931 10.6666H4.1311V13.7142H7.22931V10.6666ZM6.19657 12.6984H5.16384V11.6825H6.19657V12.6984Z" fill="black"/>
<path d="M7.22931 14.7302H4.1311V17.7778H7.22931V14.7302ZM6.19657 16.762H5.16384V15.7461H6.19657V16.762Z" fill="black"/>
<path d="M7.22931 18.7937H4.1311V21.8413H7.22931V18.7937ZM6.19657 20.8254H5.16384V19.8096H6.19657V20.8254Z" fill="black"/>
<path d="M8.26196 21.8413H11.3602V18.7937H8.26196V21.8413ZM9.2947 19.8096H10.3274V20.8254H9.2947V19.8096Z" fill="black"/>
<path d="M4.1311 22.8572H13.9421V23.8731H4.1311V22.8572Z" fill="black"/>
</g>
<defs>
<clipPath id="clip0_89_294">
<rect width="32" height="32" fill="white"/>
</clipPath>
</defs>
</svg>
